PathFileType        4      (X/Y/Z)      C:\Users\pc\Desktop\IMUTRC\Sujet_02\Sujet_02_velo_100.trc         
DataRate	CameraRate	NumFrames	NumMarkers	Units	OrigDataRate	OrigDataStartFrame	OrigNumFrames
60.0	60.0	4	64	mm	60.0	118	943
Frame#	Time	pHipOrigin			pRightASI			pLeftASI			pRightCSI			pLeftCSI			pRightIschialTub			pLeftIschialTub			pSacrum			pL5SpinalProcess			pL3SpinalProcess			pT12SpinalProcess			pIJ			pT4SpinalProcess			pT8SpinalProcess			pPX			pC7SpinalProcess			pTopOfHead			pRightAuricularis			pLeftAuricularis			pBackOfHead			pRightAcromion			pLeftAcromion			pRightArmLatEpicondyle			pRightArmMedEpicondyle			pLeftArmLatEpicondyle			pLeftArmMedEpicondyle			pRightUlnarStyloid			pRightRadialStyloid			pRightOlecranon			pLeftUlnarStyloid			pLeftRadialStyloid			pLeftOlecranon			pRightTopOfHand			pRightPinky			pRightBallHand			pLeftTopOfHand			pLeftPinky			pLeftBallHand			pRightGreaterTrochanter			pRightKneeLatEpicondyle			pRightKneeMedEpicondyle			pRightPatella			pLeftGreaterTrochanter			pLeftKneeLatEpicondyle			pLeftKneeMedEpicondyle			pLeftPatella			pRightTibialTub			pRightLatMalleolus			pRightMedMalleolus			pLeftTibialTub			pLeftLatMalleolus			pLeftMedMalleolus			pRightHeelFoot			pRightFirstMetatarsal			pRightFifthMetatarsal			pRightPivotFoot			pRightHeelCenter			pRightToe			pLeftHeelFoot			pLeftFirstMetatarsal			pLeftFifthMetatarsal			pLeftPivotFoot			pLeftHeelCenter			pLeftToe			
		X1	Y1	Z1	X2	Y2	Z2	X3	Y3	Z3	X4	Y4	Z4	X5	Y5	Z5	X6	Y6	Z6	X7	Y7	Z7	X8	Y8	Z8	X9	Y9	Z9	X10	Y10	Z10	X11	Y11	Z11	X12	Y12	Z12	X13	Y13	Z13	X14	Y14	Z14	X15	Y15	Z15	X16	Y16	Z16	X17	Y17	Z17	X18	Y18	Z18	X19	Y19	Z19	X20	Y20	Z20	X21	Y21	Z21	X22	Y22	Z22	X23	Y23	Z23	X24	Y24	Z24	X25	Y25	Z25	X26	Y26	Z26	X27	Y27	Z27	X28	Y28	Z28	X29	Y29	Z29	X30	Y30	Z30	X31	Y31	Z31	X32	Y32	Z32	X33	Y33	Z33	X34	Y34	Z34	X35	Y35	Z35	X36	Y36	Z36	X37	Y37	Z37	X38	Y38	Z38	X39	Y39	Z39	X40	Y40	Z40	X41	Y41	Z41	X42	Y42	Z42	X43	Y43	Z43	X44	Y44	Z44	X45	Y45	Z45	X46	Y46	Z46	X47	Y47	Z47	X48	Y48	Z48	X49	Y49	Z49	X50	Y50	Z50	X51	Y51	Z51	X52	Y52	Z52	X53	Y53	Z53	X54	Y54	Z54	X55	Y55	Z55	X56	Y56	Z56	X57	Y57	Z57	X58	Y58	Z58	X59	Y59	Z59	X60	Y60	Z60	X61	Y61	Z61	X62	Y62	Z62	X63	Y63	Z63	X64	Y64	Z64	
118	1.95	0.0	1250.00218	7.654055843321067E-14	74.97175000000001	1367.42577	132.80386000000007	32.63342999999999	1362.09092	-153.0649699999999	14.245200000000008	1430.19546	114.30213000000009	-20.488120000000006	1425.82542	-120.03425999999992	-40.23843999999999	1182.63544	67.08298000000008	-57.60509	1180.42204	-50.05683999999993	-72.87186	1261.75022	10.556200000000082	-46.48135	1376.79015	6.129410000000087	3.0079500000000006	1488.14108	7.434750000000092	59.08069	1584.79278	11.237250000000094	321.62372	1613.96423	-17.59366999999992	209.53499	1720.49109	16.11808000000009	132.12282	1667.14253	15.096510000000093	218.89936	1536.83583	-20.147589999999923	264.13213	1752.1597	17.13964000000009	492.45262	1754.65687	-56.015989999999924	433.6557	1722.59098	29.85249000000008	387.57162	1760.55926	-84.90366999999992	408.85429	1789.56045	-10.953479999999916	257.60544	1688.5387	209.0242000000001	236.37953	1748.64097	-190.1819399999999	293.07656	1393.92979	257.0946600000001	256.35686	1376.50638	206.69730000000007	310.72699	1460.89926	-220.82898999999995	275.5964	1441.71648	-169.86408999999995	409.8191	1142.45376	308.96762000000007	456.07344	1167.48218	283.25816000000003	249.20588000000004	1379.9116	245.06286000000006	429.28565	1205.96124	-260.89715999999993	469.12681	1225.42779	-222.70185999999995	270.65882	1448.92421	-215.26711999999995	592.50955	1056.47177	301.30586	507.54913	1074.46272	328.37742	449.88728	1119.29821	303.91654000000005	627.07261	1172.53326	-197.95720999999995	550.05771	1161.23926	-245.11960999999994	477.75339	1187.23249	-240.29553999999993	42.50859000000001	1251.81831	176.3907700000001	465.26756	1102.55584	171.33969000000002	468.84304	1095.57513	85.07393000000005	480.02354	1145.51846	122.07740000000004	-13.22363000000001	1207.83412	-172.81527999999992	242.22517	839.89931	-153.23522999999997	264.81318	851.81761	-70.48819999999996	290.74966	874.9164	-123.15571999999996	497.50371	1047.05064	115.66422000000004	227.24217	710.16015	99.60290000000003	226.9584	720.54609	31.95238000000003	305.27863	802.27155	-120.71530999999997	152.38392	399.54667	-156.47018999999997	162.20233	395.63066	-88.87642999999998	136.43611	633.42903	24.801410000000033	301.47612	547.73081	21.396180000000015	274.34781	536.15304	104.25671000000001	309.19464	529.51284	66.79921000000002	172.24775	610.78427	33.371230000000025	380.30713	488.19609	84.27938	52.61075999999999	326.61805	-99.37587999999998	199.83009	213.79152	-112.25899	174.5179	223.66668	-195.85732	206.12976	203.7461	-160.32945	84.16587	300.11403	-112.03197999999999	269.58049	154.54057	-185.35787000000002	
119	1.967	0.0	1250.00218	7.654055843321067E-14	74.85825000000001	1367.65279	132.74711000000008	32.236149999999995	1362.09092	-153.12171999999993	13.904680000000008	1430.30897	114.24538000000008	-20.998900000000006	1425.76867	-120.03425999999992	-40.011419999999994	1182.52193	67.13973000000007	-57.49159	1180.25178	-50.00008999999993	-72.87186	1261.57996	10.669710000000082	-46.82188	1376.67664	6.129410000000087	2.6106700000000003	1488.14108	7.718520000000091	58.68342	1584.79278	11.804790000000095	321.22644	1613.85072	-16.515349999999923	209.25122	1720.37758	17.480170000000093	131.7823	1667.08577	16.061320000000094	218.50208	1536.83583	-19.636809999999922	263.84836	1751.98944	18.72875000000009	492.2256	1754.60011	-54.14310999999992	433.31517	1722.36396	31.611860000000082	387.40136	1760.55926	-83.14429999999992	408.62727	1789.39019	-9.137359999999914	256.47037	1687.06311	210.3295400000001	236.32277	1748.75447	-188.8766099999999	289.89835	1391.88665	257.2649200000001	253.57593	1374.97403	206.35677000000007	309.42165	1461.01277	-220.94249999999994	274.40457	1441.82999	-169.92083999999994	409.47858	1141.6592	307.5487800000001	455.3924	1167.25516	281.78256000000005	246.36819000000003	1377.81171	245.06286000000006	428.09382	1206.018	-260.6701499999999	468.162	1225.76832	-222.81536999999994	269.29672	1448.92421	-215.15360999999993	592.16903	1056.188	300.56806	507.03834	1074.17895	327.35585	449.43325	1118.84418	302.6679500000001	626.16454	1173.21431	-198.12746999999993	549.14965	1161.69329	-245.23311999999996	476.73182	1187.51626	-240.29553999999993	43.30314000000001	1252.4426	176.10700000000008	468.10524	1109.13928	167.31017000000003	470.99969	1102.15857	81.04441000000004	481.78291	1152.21541	117.87762000000004	-13.393890000000011	1207.6071	-172.70177999999993	243.5305	840.63711	-153.34873999999996	266.28877	852.78242	-70.65846999999995	291.99824	875.88121	-123.43948999999996	502.89532	1054.7124	112.54276000000004	248.63835	705.22257	104.71074000000003	247.44652	714.30318	36.88996000000003	304.25706	800.8527	-120.82880999999998	131.0445	406.41388	-155.95940999999996	140.57913	402.10059	-88.36564999999999	162.65636	622.47555	30.87406000000003	332.35018	546.42547	29.68223000000001	305.50564	534.62068	112.54276000000002	340.92001	529.45609	75.36903000000001	199.65983	602.10094	39.95467000000002	414.07564	492.67963	93.87077	27.298569999999994	339.72818	-99.09210999999999	167.87771	218.7291	-111.69146	143.36007	230.0231	-195.34654	173.72335	208.2864	-159.70516	57.321329999999996	311.46479	-111.69145999999999	234.27964	155.67564	-184.62007000000003	
120	1.983	0.0	1250.00218	7.654055843321067E-14	74.85825000000001	1367.76629	132.5768500000001	31.83887999999999	1362.14767	-153.17846999999992	13.847920000000007	1430.30897	114.18862000000009	-21.452930000000006	1425.71191	-120.03425999999992	-39.841159999999995	1182.46518	67.25324000000008	-57.43483	1180.19502	-49.88657999999993	-72.87186	1261.46645	10.726470000000083	-46.93538	1376.61989	6.186160000000087	2.4404100000000004	1488.08433	8.002280000000091	58.56991	1584.73603	12.315570000000093	321.16969	1613.56695	-15.60728999999992	209.30797	1720.09381	18.672000000000093	131.7823	1666.91551	16.969380000000097	218.33182	1536.72232	-19.126029999999922	263.90511	1751.59216	20.09084000000009	492.45262	1754.14608	-52.44049999999992	433.37193	1721.79642	33.200970000000076	387.68513	1760.21874	-81.55518999999991	408.79754	1788.93616	-7.434749999999916	255.73257	1685.41725	211.46461000000008	236.60654	1748.52746	-187.79827999999992	287.45794	1389.78676	257.66220000000004	251.53279	1373.27141	206.35677000000007	308.45684	1460.78575	-220.94249999999994	273.49651	1441.60297	-169.80732999999995	409.64884	1140.75114	306.47046000000006	455.22213	1166.80113	280.59073000000006	244.21155000000002	1375.71182	245.34663000000006	427.18576	1205.84774	-260.44312999999994	467.48095	1225.82507	-222.98562999999993	268.2184	1448.58369	-214.86983999999995	592.22578	1055.79072	300.05728	507.0951	1073.66816	326.61805	449.43325	1118.21989	301.7031400000001	625.4835	1173.44132	-198.35448999999994	548.41185	1161.8068	-245.34662999999995	475.99402	1187.51626	-240.29553999999993	44.26795000000001	1252.61286	175.7664800000001	469.18357	1110.04734	162.88337000000004	471.28346	1103.06663	76.61761000000004	482.35045	1153.18022	113.39407000000004	-12.99662000000001	1207.55035	-172.70177999999993	249.20588	844.26935	-153.68925999999996	271.85065	856.69843	-70.99898999999996	297.16283	880.25125	-123.83676999999996	506.47081	1057.0393	109.47806000000004	270.65882	694.83663	109.93209000000003	269.06971	702.21462	41.88430000000003	306.86773	802.38506	-121.22608999999997	111.06715999999999	418.55919	-155.50537999999997	120.43154	413.79187	-87.91161999999998	190.12519	605.39266	37.11698000000002	364.1323	539.78528	37.91153000000001	337.62829	527.81023	120.82881000000002	373.43993	524.12123	83.93885	228.20698	587.45846	46.70837000000002	448.6387	492.16885	103.34865	3.461979999999994	358.17316	-98.86509999999997	136.60637	228.94478	-111.06716	112.99678999999999	241.60088	-194.77899999999997	141.88447	218.16156	-159.08087	31.782119999999992	328.09365	-111.40768999999999	199.26255	161.97531	-183.76877	
121	2.0	0.0	1250.00218	7.654055843321067E-14	74.97175000000001	1367.70954	132.5768500000001	31.55510999999999	1362.26118	-153.17846999999992	13.847920000000007	1430.25222	114.30213000000009	-21.736700000000006	1425.76867	-119.92074999999991	-39.670899999999996	1182.40842	67.25324000000008	-57.49159	1180.13827	-49.82982999999993	-72.87186	1261.4097	10.839970000000081	-47.04889	1376.61989	6.356420000000087	2.3269100000000003	1488.08433	8.28605000000009	58.4564	1584.67927	12.826360000000093	321.11293	1613.5102	-14.81273999999992	209.19446	1719.9803	19.580060000000092	131.66879	1666.85876	17.650430000000096	218.21832	1536.72232	-18.671999999999922	263.90511	1751.53541	21.16916000000009	492.50937	1753.80556	-51.02165999999992	433.25842	1721.4559	34.39280000000008	387.79863	1760.16199	-80.36335999999991	408.85429	1788.70914	-6.129409999999916	255.22179	1684.45243	212.3726800000001	236.72005	1748.58421	-186.8902199999999	286.1526	1388.70844	258.17298000000005	250.51122	1372.36335	206.64054000000004	307.8893	1460.95601	-220.82898999999995	272.98572	1441.71648	-169.75057999999996	409.87586	1140.29711	305.90292000000005	455.27889	1166.68762	279.96644000000003	243.07647000000003	1374.52	245.80066000000005	426.50472	1205.84774	-260.3863799999999	466.97017	1225.99533	-223.09913999999995	267.59411	1448.64044	-214.69957999999994	592.45279	1055.62046	299.94377	507.2086	1073.4979	326.33428	449.54676	1117.93612	301.19235000000003	624.91596	1173.61159	-198.46799999999993	547.84432	1161.9203	-245.34662999999995	475.42648	1187.57302	-240.35228999999995	45.06251000000002	1252.04532	175.48271000000008	468.162	1104.65573	158.62684000000002	469.46734	1097.84528	72.30433000000004	481.38563	1147.73186	109.08078000000005	-12.031800000000011	1207.94763	-172.8720399999999	257.6622	850.17175	-154.65406999999996	279.68267	862.65758	-71.85029999999996	304.76784	887.00495	-124.40429999999996	507.66263	1053.46382	106.58361000000004	290.63615	679.74012	114.01836000000003	289.1038	685.52901	45.857060000000025	311.6918	806.41458	-122.07739999999997	93.87076999999998	434.56376	-155.27835999999996	103.29189	429.28565	-87.68459999999997	215.60764	584.16674	42.50859000000002	393.01998	528.60478	45.00575000000001	366.91324	516.57298	128.03655	403.0654	514.30283	91.31685	254.59749	568.6162	52.49725000000002	479.96679	486.9475	111.57795	-16.912630000000007	380.08012	-98.75158999999996	108.74026	243.58726	-110.55637999999999	86.03873999999999	257.43518	-194.32496999999998	113.56432999999998	232.46352	-158.57007999999996	9.704899999999993	348.46826	-111.18066999999998	167.70744	172.98555	-183.14447	
